<?xml version="1.0" standalone="no"?><!DOCTYPE svg PUBLIC "-//W3C//DTD SVG 1.1//EN" "http://www.w3.org/Graphics/SVG/1.1/DTD/svg11.dtd"><svg t="1533357909116" class="icon" style="" viewBox="0 0 1024 1024" version="1.1" xmlns="http://www.w3.org/2000/svg" p-id="1850" xmlns:xlink="http://www.w3.org/1999/xlink" width="16" height="16"><defs><style type="text/css"></style></defs><path d="M956.032 340.48l-69.248-53.44L886.784 223.104c-0.704-19.712-8.768-38.144-22.656-52.096l-91.264-84.736c-14.4-12.608-33.088-19.968-52.224-20.544L580.224 65.728 560.704 51.072 560 50.688C544.96 40.96 528.32 37.312 512 37.248 495.616 37.312 478.976 40.96 463.936 50.688l-0.64 0.384L443.264 65.664 179.072 65.664C155.904 65.792 137.28 84.416 137.216 107.52l0 181.056L53.568 349.44 53.76 349.696C39.04 362.112 29.76 380.672 29.696 401.408l0 517.568c0.064 37.504 30.336 67.712 67.84 67.84l828.992 0c37.44-0.128 67.712-30.336 67.84-67.84L994.368 401.408C994.24 374.592 978.624 351.488 956.032 340.48zM886.72 363.328l10.624 8.192-10.624 6.912L886.72 363.328zM761.088 136l56.064 52.096-52.672 0c-1.664 0-3.392-1.6-3.392-3.328L761.088 136zM175.744 107.52c0-1.664 1.6-3.328 3.328-3.328l541.504 0c0.896-0.064 1.984 0 3.2 0.192-0.896 3.392-1.152 6.72-1.216 10.048l0 70.4c0.128 23.104 18.688 41.728 41.856 41.856l79.104 0c1.536 0 3.072-0.064 4.672-0.256l0 177.28L549.376 599.68C537.344 594.304 524.544 592.064 512 591.936 499.456 592.064 486.656 594.304 474.624 599.68l-298.88-196.032L175.744 107.52zM137.216 363.136l0 15.296L126.144 371.2 137.216 363.136zM89.92 419.584l328.704 215.552L89.92 850.56 89.92 419.584zM926.528 926.592 97.472 926.592c-2.816 0-5.44-1.92-6.656-4.416l406.208-266.24C499.264 654.208 505.472 652.16 512 652.288c6.464-0.128 12.672 1.856 14.976 3.584l406.144 266.24C931.904 924.608 929.344 926.592 926.528 926.592zM934.016 850.56 605.312 635.136l328.704-215.552L934.016 850.56zM748.224 376.32 275.968 376.32l0 32.704 472.256 0L748.224 376.32zM748.224 280.896 275.968 280.896l0 32.64 472.256 0L748.224 280.896z" p-id="1851" fill="#e6e6e6"></path></svg>