<?xml version="1.0" standalone="no"?><!DOCTYPE svg PUBLIC "-//W3C//DTD SVG 1.1//EN" "http://www.w3.org/Graphics/SVG/1.1/DTD/svg11.dtd"><svg t="1533283595842" class="icon" style="" viewBox="0 0 1024 1024" version="1.1" xmlns="http://www.w3.org/2000/svg" p-id="2926" xmlns:xlink="http://www.w3.org/1999/xlink" width="16" height="16"><defs><style type="text/css"></style></defs><path d="M498.048 1019.136C502.208 1022.4 507.072 1024 512.064 1024c4.864 0 9.728-1.6 13.888-4.864 15.104-11.84 370.24-340.48 370.24-635.072 0-211.776-172.352-384-384.128-384-211.84 0-384.256 172.288-384.256 384C127.808 678.656 482.944 1007.296 498.048 1019.136zM332.8 383.936c0-99.008 80.256-179.264 179.264-179.264s179.328 80.256 179.328 179.264S611.072 563.264 512.064 563.264 332.8 482.944 332.8 383.936z" p-id="2927" fill="#d81e06"></path></svg>