<?xml version="1.0" standalone="no"?><!DOCTYPE svg PUBLIC "-//W3C//DTD SVG 1.1//EN" "http://www.w3.org/Graphics/SVG/1.1/DTD/svg11.dtd"><svg t="1533283679262" class="icon" style="" viewBox="0 0 1024 1024" version="1.1" xmlns="http://www.w3.org/2000/svg" p-id="3104" xmlns:xlink="http://www.w3.org/1999/xlink" width="16" height="16"><defs><style type="text/css"></style></defs><path d="M760.663406 528.093537l0.170892 0.096191L593.303724 815.900451l-1.055029 0.696872c-10.000771 23.754007-33.628912 40.461527-61.217247 40.461527-27.585265 0-51.205219-16.70752-61.20906-40.461527l-1.051959-0.696872L301.240879 528.189727c-73.278957-125.832893-29.797653-286.736537 97.115851-359.385137 126.916575-72.65167 289.208844-29.53364 362.476545 96.296183C809.93253 349.420181 806.383704 449.386964 760.663406 528.093537zM531.032472 297.987788c-54.953589 0-99.497085 44.169989-99.497085 98.658997 0 54.485939 44.543496 98.661044 99.497085 98.661044s99.510388-44.175105 99.510388-98.661044C630.54286 342.157777 585.986061 297.987788 531.032472 297.987788z" p-id="3105" fill="#d81e06"></path></svg>