<?xml version="1.0" standalone="no"?><!DOCTYPE svg PUBLIC "-//W3C//DTD SVG 1.1//EN" "http://www.w3.org/Graphics/SVG/1.1/DTD/svg11.dtd"><svg t="1533188614961" class="icon" style="" viewBox="0 0 1024 1024" version="1.1" xmlns="http://www.w3.org/2000/svg" p-id="2692" xmlns:xlink="http://www.w3.org/1999/xlink" width="200" height="200"><defs><style type="text/css"></style></defs><path d="M1022.280334 920.387177l-244.394173-244.388033c19.159362-26.907836 35.103496-55.914474 47.583738-86.689385 20.772093-51.223638 31.30703-105.34221 31.309076-160.856571-0.002047-55.514361-10.536984-109.636003-31.309076-160.858618-21.519106-53.06252-53.115732-100.651374-93.913926-141.450592-40.798195-40.796148-88.388073-72.39482-141.450592-93.909833-51.228755-20.774139-105.346303-31.30703-160.855548-31.30703-55.510268 0-109.630886 10.532891-160.856571 31.30703-53.060473 21.515013-100.651374 53.113685-141.453662 93.91188-40.798195 40.798195-72.392774 88.390119-93.90881 141.448546-20.774139 51.223638-31.309076 105.344257-31.311123 160.860664 0.002047 55.510268 10.536984 109.627816 31.309076 160.854525 21.519106 53.063543 53.113685 100.653421 93.91188 141.450592 40.800241 40.798195 88.390119 72.39482 141.451616 93.913926 51.228755 20.772093 105.350396 31.304983 160.858618 31.30703 55.504128-0.002047 109.623723-10.534937 160.852478-31.30703 30.065759-12.19167 58.450227-27.683503 84.83413-46.258557l244.658186 244.656139L1022.280334 920.387177zM770.318812 428.455235c0 91.101881-35.475979 176.75261-99.894128 241.170758-64.422242 64.420195-150.071947 99.898221-241.174851 99.898221-91.108021-0.002047-176.759773-35.480073-241.173828-99.898221-64.418148-64.418148-99.898221-150.067854-99.900268-241.170758 0-91.103928 35.480073-176.75261 99.900268-241.174851 64.418148-64.420195 150.067854-99.898221 241.173828-99.898221 91.102904 0 176.75261 35.478026 241.174851 99.900268C734.842833 251.699556 770.318812 337.349261 770.318812 428.455235z" p-id="2693" fill="#bfbfbf"></path></svg>